<?xml version="1.0" standalone="no"?><!DOCTYPE svg PUBLIC "-//W3C//DTD SVG 1.1//EN" "http://www.w3.org/Graphics/SVG/1.1/DTD/svg11.dtd"><svg t="1598966765312" class="icon" viewBox="0 0 1024 1024" version="1.1" xmlns="http://www.w3.org/2000/svg" p-id="5407" xmlns:xlink="http://www.w3.org/1999/xlink" width="200" height="200"><defs><style type="text/css"></style></defs><path d="M459.690667 893.653333l-330.368-330.410666c0.042667 0.085333 354.389333-354.56 354.389333-354.56 7.850667-7.850667 28.757333-15.701333 39.637333-14.933334h4.864l243.2-11.818666c24.832 2.773333 47.274667 25.770667 48.896 50.773333l3.584 54.272a42.666667 42.666667 0 0 0 85.162667-5.632l-3.584-54.272c-4.522667-68.352-62.165333-125.994667-130.517333-130.474667l-4.864-0.042666-243.925334 11.861333c-34.944-1.28-78.208 15.36-102.826666 39.936l-354.474667 354.474667a85.674667 85.674667 0 0 0 0.085333 120.746666l330.624 330.624a84.906667 84.906667 0 0 0 120.448-0.213333l354.517334-354.474667c24.618667-24.618667 42.410667-65.194667 41.685333-99.754666l4.010667-39.850667a42.666667 42.666667 0 0 0-84.906667-8.533333l-4.309333 42.794666-0.128 7.082667c0.597333 9.472-7.68 28.885333-16.682667 37.930667l-354.517333 354.474666z m264.96-618.88a131.157333 131.157333 0 0 0-17.450667-21.930666 42.666667 42.666667 0 1 0-60.330667 60.373333c1.834667 1.834667 3.498667 4.010667 6.912 9.088 6.4 9.514667 8.405333 12.373333 13.226667 17.621333 10.026667 10.88 22.186667 18.602667 37.290667 22.741334 56.490667 15.36 166.144-1.536 222.506666-57.856 48.981333-48.981333 77.482667-112.213333 78.848-173.653334a42.666667 42.666667 0 0 0-85.333333-1.877333c-0.853333 38.826667-20.053333 81.322667-53.845333 115.2-31.146667 31.061333-106.666667 43.264-137.685334 36.352a228.693333 228.693333 0 0 1-4.138666-6.058667z m-227.754667 37.546667a32.042667 32.042667 0 0 1 45.226667 0l165.973333 165.973333a32.042667 32.042667 0 0 1-45.226667 45.226667l-166.016-165.973333a31.914667 31.914667 0 0 1 0-45.226667z m-211.2 211.2a32.042667 32.042667 0 0 1 45.226667 0l165.973333 165.973333a32.042667 32.042667 0 0 1-45.226667 45.226667l-165.973333-165.973333a31.914667 31.914667 0 0 1 0-45.226667zM391.253333 417.92a31.701333 31.701333 0 0 1 45.013334-0.213333l121.173333 121.173333c12.373333 12.373333 12.330667 32.426667-0.256 45.013333a31.701333 31.701333 0 0 1-45.013333 0.213334l-121.173334-121.173334a31.744 31.744 0 0 1 0.256-45.013333z" p-id="5408"></path></svg>