<?xml version="1.0" standalone="no"?><!DOCTYPE svg PUBLIC "-//W3C//DTD SVG 1.1//EN" "http://www.w3.org/Graphics/SVG/1.1/DTD/svg11.dtd"><svg t="1598966770220" class="icon" viewBox="0 0 1024 1024" version="1.1" xmlns="http://www.w3.org/2000/svg" p-id="5532" xmlns:xlink="http://www.w3.org/1999/xlink" width="200" height="200"><defs><style type="text/css"></style></defs><path d="M889.9 6.8H201.1c-55 0.2-99.4 46.9-99.3 104.4v123.9H69.3c-19.1 0-34.5 16.2-34.5 36.1 0 20 15.5 36.1 34.5 36.1h32.4V468H69.3c-19.1 0-34.5 16.2-34.5 36.1 0 20 15.5 36.1 34.5 36.1h32.4v160.6H69.3c-19.1 0-34.5 16.2-34.5 36.1 0 20 15.5 36.1 34.5 36.1h32.4v139.7c-0.1 57.5 44.4 104.2 99.3 104.4h688.8c55-0.2 99.4-46.9 99.3-104.4V111.2c0.2-57.5-44.3-104.3-99.2-104.4z m30.6 906c0 17.7-13.7 32.1-30.6 32.1H201.1c-16.9-0.1-30.6-14.4-30.6-32.1V773.1h19.1c19.1 0 34.5-16.2 34.5-36.1s-15.5-36.1-34.5-36.1h-19.1V540.2h19.1c19.1 0 34.5-16.2 34.5-36.1 0-20-15.5-36.1-34.5-36.1h-19.1V307.4h19.1c19.1 0 34.5-16.2 34.5-36.1 0-20-15.5-36.1-34.5-36.1h-19.1v-124c0-17.7 13.6-32.1 30.6-32.1h688.8c16.9 0.1 30.6 14.4 30.6 32.1v801.6zM710.7 502.5c19 0 34.4-16.1 34.4-36.1s-15.4-36.1-34.4-36.1h-79.9l96.8-102c13.4-14.1 13.4-36.9 0-51-6.4-6.8-15.1-10.5-24.2-10.5s-17.8 3.8-24.2 10.5l-123.3 130-123.3-129.9c-6.4-6.8-15.1-10.6-24.2-10.6s-17.8 3.8-24.2 10.6c-13.4 14.1-13.4 36.9 0 51l96.8 102h-75.3c-19 0-34.4 16.1-34.4 36s15.4 36.1 34.4 36.1H524v63.7H405.6c-18.8 0.3-34 16.3-34 36s15.1 35.8 34 36h118.3v86.3c-0.2 12.9 6.3 24.9 17 31.4s23.8 6.5 34.5 0 17.2-18.5 17-31.4v-86.4h118.3c18.8-0.3 34-16.3 34-36.1s-15.1-35.8-34-36H592.4v-63.7h118.3z" p-id="5533"></path></svg>