<?xml version="1.0" standalone="no"?><!DOCTYPE svg PUBLIC "-//W3C//DTD SVG 1.1//EN" "http://www.w3.org/Graphics/SVG/1.1/DTD/svg11.dtd"><svg t="1599484914205" class="icon" viewBox="0 0 1024 1024" version="1.1" xmlns="http://www.w3.org/2000/svg" p-id="5351" xmlns:xlink="http://www.w3.org/1999/xlink" width="200" height="200"><defs><style type="text/css"></style></defs><path d="M0.026 975.24h1023.948V1024H0.026v-48.76zM28.282 921.41l0.098 0.56 1.462-0.267c0.122 0 0.244 0.073 0.366 0.073 2.072 0 4.071-0.439 5.851-1.195l266.52-47.98-0.025-0.17c9.289-1.73 18.187-6.217 25.38-13.409L914.07 272.885c19.04-19.065 19.04-49.93 0-68.97L724.445 14.29c-19.04-19.041-49.905-19.065-68.946 0L69.337 600.45c-7.118 7.143-11.58 15.92-13.36 25.111l-0.243-0.024-35.522 248.405-0.463 0.073 0.244 1.39-3.633 25.452a14.714 14.714 0 0 0-1.194 5.876c0 7.63 5.753 13.701 13.116 14.676z m92.765-303.722L672.71 66.048c9.533-9.533 24.94-9.533 34.473 0L862.337 221.2c9.532 9.533 9.532 24.965 0 34.473L310.672 807.337c-9.532 9.533-24.94 9.533-34.473 0L121.047 652.161c-9.533-9.533-9.533-24.94 0-34.473z m-26.038 77.405l140.135 140.135L70.75 864.825 95.01 695.093z" p-id="5352"></path></svg>