<?xml version="1.0" standalone="no"?><!DOCTYPE svg PUBLIC "-//W3C//DTD SVG 1.1//EN" "http://www.w3.org/Graphics/SVG/1.1/DTD/svg11.dtd"><svg t="1598966757325" class="icon" viewBox="0 0 1024 1024" version="1.1" xmlns="http://www.w3.org/2000/svg" p-id="5282" xmlns:xlink="http://www.w3.org/1999/xlink" width="200" height="200"><defs><style type="text/css"></style></defs><path d="M33.651934 947.413717c-18.549471 0-33.630958-15.081487-33.630958-33.630958l0-808.411897c0-18.556635 15.081487-33.645284 33.630958-33.645284 18.556635 0 33.645284 15.08865 33.645284 33.645284l0 774.773775 923.04982 0c18.549471 0 33.630958 15.08865 33.630958 33.638121 0 18.549471-15.081487 33.630958-33.630958 33.630958L33.651934 947.413717zM142.599252 765.715469c-7.294127 0-14.253632-2.319835-20.123316-6.705726-14.85022-11.120268-17.893532-32.243355-6.779404-47.093575l220.624816-294.755164c6.42227-8.570189 16.244986-13.485129 26.963095-13.485129 6.705726 0 13.19451 1.977028 18.758226 5.728468L580.447415 543.010271l349.6054-278.503015c6.019087-4.796236 13.253862-7.331989 20.928658-7.331989 10.314926 0 19.906375 4.617158 26.328645 12.679787 5.601578 7.018857 8.121981 15.804964 7.123234 24.740474-1.006933 8.92016-5.436826 16.923438-12.462846 22.532179L603.069645 611.001805c-5.91471 4.728698-13.358239 7.324826-20.958334 7.324826-6.720052 0-13.217023-1.977028-18.787902-5.728468L371.011428 483.09467l-201.448058 269.127484C163.148263 760.799506 153.317361 765.715469 142.599252 765.715469z" p-id="5283"></path></svg>